<svg width="40" height="40" viewBox="0 0 40 40" fill="none" xmlns="http://www.w3.org/2000/svg">
  <circle cx="20" cy="20" r="18" fill="#ff6b35" stroke="#f7931e" stroke-width="2"/>
  <path d="M12 15C12 13.3431 13.3431 12 15 12H25C26.6569 12 28 13.3431 28 15V16H12V15Z" fill="white"/>
  <path d="M12 16H28V22C28 23.6569 26.6569 25 25 25H15C13.3431 25 12 23.6569 12 22V16Z" fill="white"/>
  <circle cx="16" cy="19" r="1" fill="#ff6b35"/>
  <circle cx="20" cy="19" r="1" fill="#ff6b35"/>
  <circle cx="24" cy="19" r="1" fill="#ff6b35"/>
  <path d="M15 27C15 26.4477 15.4477 26 16 26H24C24.5523 26 25 26.4477 25 27V28C25 28.5523 24.5523 29 24 29H16C15.4477 29 15 28.5523 15 28V27Z" fill="#2c3e50"/>
  <path d="M13 29C13 28.4477 13.4477 28 14 28H26C26.5523 28 27 28.4477 27 29V30C27 30.5523 26.5523 31 26 31H14C13.4477 31 13 30.5523 13 30V29Z" fill="#2c3e50"/>
</svg>
